<!DOCTYPE svg PUBLIC "-//W3C//DTD SVG 20010904//EN" "http://www.w3.org/TR/2001/REC-SVG-20010904/DTD/svg10.dtd">
<svg version="1.0" xmlns="http://www.w3.org/2000/svg" width="622px" height="650px" viewBox="0 0 6220 6500" preserveAspectRatio="xMidYMid meet">
<g id="layer101" fill="#02c5e5" stroke="none">
<path d="M985 5919 c-244 -23 -484 -138 -660 -315 -155 -156 -253 -339 -302 -564 -17 -81 -18 -188 -18 -2075 0 -1887 1 -1994 18 -2075 49 -226 147 -409 303 -564 176 -177 397 -284 654 -315 47 -6 273 -11 512 -11 l428 0 0 2965 0 2965 -427 -1 c-236 -1 -464 -5 -508 -10z"/>
<path d="M2390 4255 c0 -2 25 -125 55 -272 30 -147 55 -274 55 -280 0 -10 -27 -13 -100 -13 l-100 0 0 -155 0 -155 129 0 c72 0 132 -4 136 -9 6 -11 85 -397 85 -418 0 -10 -37 -13 -175 -13 l-175 0 0 -160 0 -160 210 0 c116 0 210 -1 210 -2 0 -2 27 -129 58 -283 l58 -280 162 -3 163 -2 -6 22 c-13 56 -105 523 -105 535 0 9 19 13 70 13 50 0 70 4 70 13 -1 6 -13 77 -28 157 l-28 145 -77 3 c-42 2 -77 4 -77 6 0 1 -18 92 -40 201 -22 109 -40 207 -40 217 0 16 9 18 75 18 l75 0 -6 38 c-3 20 -16 89 -28 152 l-21 115 -82 3 -82 3 -10 47 c-5 26 -31 154 -58 284 l-48 238 -162 0 c-90 0 -163 -2 -163 -5z"/>
</g>
<g id="layer102" fill="#ff5f55" stroke="none">
<path d="M4300 3535 l0 -2965 428 0 c239 0 465 5 512 11 257 31 480 139 655 315 180 181 285 402 315 664 8 66 10 683 8 2035 -4 1826 -5 1944 -22 2015 -58 241 -143 399 -305 561 -135 135 -266 215 -444 273 -148 48 -246 56 -716 56 l-431 0 0 -2965z"/>
<path d="M3050 4252 c0 -4 24 -129 54 -277 30 -149 52 -273 49 -277 -2 -5 -37 -8 -77 -8 l-73 0 22 -117 c13 -65 25 -135 29 -155 l7 -37 81 -3 81 -3 38 -195 c21 -107 41 -205 44 -217 5 -22 3 -23 -78 -23 l-84 0 28 -147 c16 -82 28 -153 29 -160 0 -8 27 -13 87 -15 l87 -3 55 -282 55 -283 169 0 169 0 -6 24 c-14 58 -106 515 -106 530 0 14 14 16 100 16 l100 0 0 160 0 160 -134 0 c-119 0 -135 2 -140 18 -14 43 -84 408 -79 414 2 5 83 8 179 8 l174 0 0 155 0 155 -213 0 -212 0 -43 218 c-24 119 -50 247 -58 285 l-16 67 -159 0 c-87 0 -159 -4 -159 -8z"/>
</g>


</svg>